<svg width="260" height="18" viewBox="0 0 260 18" fill="none" xmlns="http://www.w3.org/2000/svg">
  <g>
    <rect x="0"   y="8"  width="4" height="8"  rx="2" fill="#34C759" opacity="0.5"/>
    <rect x="10"  y="6"  width="4" height="10" rx="2" fill="#34C759" opacity="0.65"/>
    <rect x="20"  y="8"  width="4" height="8"  rx="2" fill="#34C759" opacity="0.8"/>
    <rect x="30"  y="4"  width="4" height="12" rx="2" fill="#34C759"/>
    <rect x="40"  y="7"  width="4" height="9"  rx="2" fill="#34C759"/>
    <rect x="50"  y="5"  width="4" height="11" rx="2" fill="#34C759"/>
    <rect x="60"  y="8"  width="4" height="8"  rx="2" fill="#34C759"/>
    <rect x="70"  y="6"  width="4" height="10" rx="2" fill="#34C759"/>
    <rect x="80"  y="4"  width="4" height="12" rx="2" fill="#34C759"/>
    <rect x="90"  y="7"  width="4" height="9"  rx="2" fill="#34C759"/>
    <rect x="100" y="5"  width="4" height="11" rx="2" fill="#34C759"/>
    <rect x="110" y="8"  width="4" height="8"  rx="2" fill="#34C759"/>
    <rect x="120" y="6"  width="4" height="10" rx="2" fill="#34C759"/>
    <rect x="130" y="2"  width="4" height="14" rx="2" fill="#FFD60A"/>
    <rect x="140" y="6"  width="4" height="10" rx="2" fill="#34C759"/>
    <rect x="150" y="8"  width="4" height="8"  rx="2" fill="#34C759"/>
    <rect x="160" y="4"  width="4" height="12" rx="2" fill="#34C759"/>
    <rect x="170" y="7"  width="4" height="9"  rx="2" fill="#34C759"/>
    <rect x="180" y="5"  width="4" height="11" rx="2" fill="#34C759"/>
    <rect x="190" y="8"  width="4" height="8"  rx="2" fill="#34C759"/>
    <rect x="200" y="6"  width="4" height="10" rx="2" fill="#34C759"/>
    <rect x="210" y="4"  width="4" height="12" rx="2" fill="#34C759"/>
    <rect x="220" y="7"  width="4" height="9"  rx="2" fill="#34C759"/>
    <rect x="230" y="8"  width="4" height="8"  rx="2" fill="#34C759" opacity="0.8"/>
    <rect x="240" y="6"  width="4" height="10" rx="2" fill="#34C759" opacity="0.65"/>
    <rect x="250" y="8"  width="4" height="8"  rx="2" fill="#34C759" opacity="0.5"/>
  </g>
</svg>
